HIERARCHY
ROOT Hips
{
	OFFSET 0.000000 0.000000 0.000000
	CHANNELS 6 Xposition Yposition Zposition Zrotation Yrotation Xrotation 
	JOINT LHipJoint
	{
		OFFSET 0.000000 0.000000 0.000000
		CHANNELS 3 Zrotation Yrotation Xrotation
		JOINT LeftUpLeg
		{
			OFFSET 1.363060 -1.794630 0.839290
			CHANNELS 3 Zrotation Yrotation Xrotation
			JOINT LeftLeg
			{
				OFFSET 2.448110 -6.726130 0.000000
				CHANNELS 3 Zrotation Yrotation Xrotation
				JOINT LeftFoot
				{
					OFFSET 2.562200 -7.039590 0.000000
					CHANNELS 3 Zrotation Yrotation Xrotation
					JOINT LeftToeBase
					{
						OFFSET 0.157640 -0.433110 2.322550
						CHANNELS 3 Zrotation Yrotation Xrotation
						End Site
						{
							OFFSET 0.000000 0.000000 0.000000
						}
					}
				}
			}
		}
	}
	JOINT RHipJoint
	{
		OFFSET 0.000000 0.000000 0.000000
		CHANNELS 3 Zrotation Yrotation Xrotation
		JOINT RightUpLeg
		{
			OFFSET -1.305520 -1.794630 0.839290
			CHANNELS 3 Zrotation Yrotation Xrotation
			JOINT RightLeg
			{
				OFFSET -2.542530 -6.985550 0.000000
				CHANNELS 3 Zrotation Yrotation Xrotation
				JOINT RightFoot
				{
					OFFSET -2.568260 -7.056230 0.000000
					CHANNELS 3 Zrotation Yrotation Xrotation
					JOINT RightToeBase
					{
						OFFSET -0.164730 -0.452590 2.363150
						CHANNELS 3 Zrotation Yrotation Xrotation
						End Site
						{
							OFFSET 0.000000 0.000000 0.000000
						}
					}
				}
			}
		}
	}
	JOINT LowerBack
	{
		OFFSET 0.000000 0.000000 0.000000
		CHANNELS 3 Zrotation Yrotation Xrotation
		JOINT Spine
		{
			OFFSET 0.028270 2.035590 -0.193380
			CHANNELS 3 Zrotation Yrotation Xrotation
			JOINT Spine1
			{
				OFFSET 0.056720 2.048850 -0.042750
				CHANNELS 3 Zrotation Yrotation Xrotation
				JOINT Neck
				{
					OFFSET 0.000000 0.000000 0.000000
					CHANNELS 3 Zrotation Yrotation Xrotation
					JOINT Neck1
					{
						OFFSET -0.054170 1.746240 0.172020
						CHANNELS 3 Zrotation Yrotation Xrotation
						JOINT Head
						{
							OFFSET 0.104070 1.761360 -0.123970
							CHANNELS 3 Zrotation Yrotation Xrotation
							End Site
							{
								OFFSET 0.000000 0.000000 0.000000
							}
						}
					}
				}
				JOINT LeftShoulder
				{
					OFFSET 0.000000 0.000000 0.000000
					CHANNELS 3 Zrotation Yrotation Xrotation
					JOINT LeftArm
					{
						OFFSET 3.362410 1.200890 -0.311210
						CHANNELS 3 Zrotation Yrotation Xrotation
						JOINT LeftForeArm
						{
							OFFSET 4.983000 -0.000000 -0.000000
							CHANNELS 3 Zrotation Yrotation Xrotation
							JOINT LeftHand
							{
								OFFSET 3.483560 -0.000000 -0.000000
								CHANNELS 3 Zrotation Yrotation Xrotation
								JOINT LeftFingerBase
								{
									OFFSET 0.000000 0.000000 0.000000
									CHANNELS 3 Zrotation Yrotation Xrotation
									JOINT LeftHandIndex1
									{
										OFFSET 0.715260 -0.000000 -0.000000
										CHANNELS 3 Zrotation Yrotation Xrotation
										End Site
										{
											OFFSET 0.000000 0.000000 0.000000
										}
									}
								}
								JOINT LThumb
								{
									OFFSET 0.000000 0.000000 0.000000
									CHANNELS 3 Zrotation Yrotation Xrotation
									End Site
									{
										OFFSET 0.000000 0.000000 0.000000
									}
								}
							}
						}
					}
				}
				JOINT RightShoulder
				{
					OFFSET 0.000000 0.000000 0.000000
					CHANNELS 3 Zrotation Yrotation Xrotation
					JOINT RightArm
					{
						OFFSET -3.136600 1.374050 -0.404650
						CHANNELS 3 Zrotation Yrotation Xrotation
						JOINT RightForeArm
						{
							OFFSET -5.241900 -0.000000 -0.000000
							CHANNELS 3 Zrotation Yrotation Xrotation
							JOINT RightHand
							{
								OFFSET -3.444170 -0.000000 -0.000000
								CHANNELS 3 Zrotation Yrotation Xrotation
								JOINT RightFingerBase
								{
									OFFSET 0.000000 0.000000 0.000000
									CHANNELS 3 Zrotation Yrotation Xrotation
									JOINT RightHandIndex1
									{
										OFFSET -0.622530 -0.000000 -0.000000
										CHANNELS 3 Zrotation Yrotation Xrotation
										End Site
										{
											OFFSET 0.000000 0.000000 0.000000
										}
									}
								}
								JOINT RThumb
								{
									OFFSET 0.000000 0.000000 0.000000
									CHANNELS 3 Zrotation Yrotation Xrotation
									End Site
									{
										OFFSET 0.000000 0.000000 0.000000
									}
								}
							}
						}
					}
				}
			}
		}
	}
}
MOTION
Frames: 7
Frame Time: 0.008333
-5.729773 17.434755 1.174040 101.170887 -84.464680 -90.088751 -8.787718 3.522398 3.151299 -19.755306 -3.543285 0.573287 -3.416885 -0.516271 3.404302 -0.665440 -5.838974 4.076507 -0.678000 0.000000 -34.316900 10.566291 0.267539 1.984276 1.207074 -4.459436 -32.896705 1.275791 -1.073146 22.615145 -1.133314 -4.648854 -1.529913 -1.027800 0.000000 -28.165000 -2.150935 -3.705550 -5.647722 -1.033497 -3.720570 -3.598974 -6.712257 -3.764220 1.580203 10.882785 -13.738553 -9.605997 -3.607886 -0.260583 -0.498065 0.000000 0.000000 0.000000 -2.939033 9.813387 0.567811 -63.773091 -8.143485 19.752236 -2.107892 -53.032890 -0.012658 5.977976 0.413114 0.016078 -0.137464 0.142182 0.000000 0.000000 0.000000 0.000000 0.000000 0.000000 0.000000 18.940794 -11.242097 0.605926 70.353492 -3.783498 -3.011628 3.341447 25.775167 0.008014 -1.649931 4.643472 -0.071722 0.107814 -0.064965 -0.000000 0.000000 0.000000 0.000000 0.000000 0.000000 0.000000 
-5.863081 17.422328 1.146787 100.006619 -84.375947 -88.964395 -8.715783 3.575063 3.064416 -19.775663 -3.443750 1.295812 -3.432013 -0.491614 3.203864 -0.693070 -6.138068 4.481133 -0.761600 0.000000 -35.208300 10.577595 0.318690 2.030623 1.513143 -4.623872 -33.055933 1.421462 -0.882653 20.374974 -1.009491 -4.132923 -0.977875 -1.023100 0.000000 -28.681100 -2.306764 -3.966571 -5.571598 -1.035315 -3.961977 -3.574350 -6.668845 -4.004757 1.573256 10.901075 -14.147936 -9.590357 -3.570679 -0.257229 -0.491292 0.000000 0.000000 0.000000 -2.514004 8.989379 0.579805 -63.281378 -8.796654 19.828750 -2.074679 -53.692890 -0.013416 5.967913 0.338734 0.011522 -0.138420 0.152213 0.000000 0.000000 0.000000 0.000000 0.000000 0.000000 0.000000 18.826150 -11.875800 0.642909 70.088928 -4.245625 -3.015390 3.342079 26.005610 0.007854 -1.474012 4.438225 -0.061539 0.107510 -0.061692 -0.000000 0.000000 0.000000 0.000000 0.000000 0.000000 0.000000 
-5.998092 17.408835 1.119701 99.242429 -84.291729 -88.239547 -8.642483 3.627299 2.976935 -19.797230 -3.343950 2.006124 -3.443362 -0.464338 3.031110 -0.715313 -6.387031 4.884760 -0.840500 0.000000 -36.151600 10.587287 0.362020 2.082603 1.856590 -4.757013 -33.173176 1.578652 -0.681567 18.117498 -0.866595 -3.522739 -0.475853 -0.986800 -0.000000 -29.451900 -2.458276 -4.218418 -5.502514 -1.036771 -4.194863 -3.550162 -6.622723 -4.236678 1.571191 10.920087 -14.560027 -9.578927 -3.529745 -0.253555 -0.485590 0.000000 0.000000 0.000000 -2.094302 8.209350 0.587743 -62.773404 -9.428836 19.818342 -2.041260 -54.317490 -0.014171 5.957568 0.277996 0.007861 -0.139058 0.161883 0.000000 0.000000 0.000000 0.000000 0.000000 0.000000 0.000000 18.698422 -12.501290 0.675951 69.817359 -4.694142 -3.020081 3.340946 26.270363 0.007699 -1.316735 4.249149 -0.053054 0.107368 -0.058653 -0.000000 0.000000 0.000000 0.000000 0.000000 0.000000 0.000000 
-6.135263 17.394484 1.092949 98.861137 -84.215574 -87.891498 -8.570320 3.678877 2.891157 -19.817040 -3.241433 2.699575 -3.450637 -0.436012 2.878756 -0.732002 -6.580101 5.280538 -0.912300 0.000000 -37.156500 10.592536 0.397612 2.145741 2.232888 -4.843847 -33.253246 1.745203 -0.468482 15.844390 -0.708919 -2.835538 -0.027756 -0.921500 -0.000000 -30.517700 -2.600652 -4.460421 -5.449243 -1.036932 -4.419119 -3.528618 -6.574178 -4.459993 1.572344 10.937877 -14.969776 -9.569689 -3.486147 -0.249695 -0.480314 0.000000 0.000000 0.000000 -1.687921 7.470767 0.591841 -62.249774 -10.025166 19.722899 -2.007196 -54.912442 -0.014932 5.948372 0.236512 0.005195 -0.139349 0.171106 0.000000 0.000000 0.000000 0.000000 0.000000 0.000000 0.000000 18.558834 -13.112241 0.704581 69.534735 -5.141546 -3.036227 3.338397 26.583663 0.007553 -1.169839 4.074939 -0.045567 0.107346 -0.055848 -0.000000 0.000000 0.000000 0.000000 0.000000 0.000000 0.000000 
-6.274967 17.379558 1.066714 98.847869 -84.149539 -87.902394 -8.500864 3.728386 2.809260 -19.834025 -3.145721 3.383818 -3.453190 -0.408653 2.729447 -0.742280 -6.701237 5.663763 -0.972100 -0.000000 -38.208699 10.590352 0.426759 2.221519 2.638068 -4.876230 -33.296441 1.918485 -0.242525 13.558262 -0.541487 -2.092072 0.363087 -0.831400 -0.000000 -31.859000 -2.729219 -4.692510 -5.414770 -1.034698 -4.635071 -3.509421 -6.523166 -4.674946 1.580343 10.955133 -15.385537 -9.567451 -3.439844 -0.245587 -0.476783 0.000000 0.000000 0.000000 -1.306616 6.792525 0.592339 -61.711331 -10.603403 19.561471 -1.973697 -55.468912 -0.015707 5.942791 0.215739 0.003627 -0.139427 0.179837 0.000000 0.000000 0.000000 0.000000 0.000000 0.000000 0.000000 18.412551 -13.716590 0.726858 69.230419 -5.578841 -3.044196 3.334403 26.954613 0.007413 -1.032501 3.910739 -0.038878 0.107467 -0.053235 -0.000000 0.000000 0.000000 0.000000 0.000000 0.000000 0.000000 
-6.417567 17.364280 1.041102 99.162057 -84.097602 -88.227829 -8.437508 3.776230 2.733173 -19.840832 -3.051123 4.048690 -3.450560 -0.382446 2.588091 -0.746937 -6.758876 6.029553 -1.019800 -0.000000 -39.325000 10.578203 0.449667 2.314072 3.070415 -4.847081 -33.308793 2.095189 -0.002752 11.261371 -0.370819 -1.322700 0.698583 -0.724101 -0.000000 -33.447300 -2.838510 -4.914082 -5.406394 -1.029096 -4.842651 -3.495374 -6.470659 -4.881675 1.590141 10.969097 -15.792859 -9.565643 -3.393127 -0.241517 -0.473109 0.000000 0.000000 0.000000 -0.954081 6.157629 0.590205 -61.161835 -11.136389 19.327862 -1.940101 -55.997086 -0.016495 5.940014 0.217036 0.003254 -0.139204 0.188035 0.000000 0.000000 0.000000 0.000000 0.000000 0.000000 0.000000 18.261359 -14.299031 0.743332 68.903495 -6.028962 -3.071737 3.329434 27.396816 0.007283 -0.890719 3.754840 -0.032688 0.107634 -0.050824 -0.000000 0.000000 0.000000 0.000000 0.000000 0.000000 0.000000 
-6.563245 17.348885 1.016193 99.767380 -84.062266 -88.830297 -8.383222 3.822508 2.663084 -19.829560 -2.952373 4.686746 -3.442357 -0.356996 2.462520 -0.746896 -6.765209 6.373146 -1.056100 -0.000000 -40.477200 10.554068 0.467490 2.424549 3.528622 -4.754065 -33.293265 2.271712 0.251129 8.958773 -0.203564 -0.559046 0.977317 -0.607900 0.000000 -35.184400 -2.924044 -5.125189 -5.425597 -1.019033 -5.042254 -3.486203 -6.416864 -5.080525 1.604366 10.980691 -16.197383 -9.567370 -3.346332 -0.237470 -0.470147 0.000000 0.000000 0.000000 -0.638238 5.579153 0.585862 -60.604968 -11.640071 19.039039 -1.907731 -56.487005 -0.017294 5.942017 0.237008 0.003979 -0.138802 0.195705 0.000000 0.000000 0.000000 0.000000 0.000000 0.000000 0.000000 18.110934 -14.865581 0.752430 68.545494 -6.483802 -3.102681 3.323513 27.911118 0.007161 -0.744183 3.605081 -0.026695 0.107856 -0.048570 -0.000000 0.000000 0.000000 0.000000 0.000000 0.000000 0.000000 
